<?xml version="1.0" encoding="utf-8"?>
<!-- Generator: Adobe Illustrator 22.1.0, SVG Export Plug-In . SVG Version: 6.00 Build 0)  -->
<svg version="1.1" id="Layer_1" xmlns="http://www.w3.org/2000/svg" xmlns:xlink="http://www.w3.org/1999/xlink" x="0px" y="0px"
	 viewBox="0 0 300 300" style="enable-background:new 0 0 300 300;" xml:space="preserve">
<style type="text/css">
	.st0{fill:#FFFFFF;}
</style>
<g>
	<path class="st0" d="M264.9,59h30.7c3,0,5.4-2.4,5.4-5.4s-2.4-5.4-5.4-5.4h-30.7c-3,0-5.4,2.4-5.4,5.4S261.9,59,264.9,59z"/>
	<path class="st0" d="M93,102H62.2c-3,0-5.4,2.4-5.4,5.4s2.4,5.4,5.4,5.4H93c3,0,5.4-2.4,5.4-5.4S95.9,102,93,102z"/>
	<path class="st0" d="M93,126.5H62.2c-3,0-5.4,2.4-5.4,5.4s2.4,5.4,5.4,5.4H93c3,0,5.4-2.4,5.4-5.4S95.9,126.5,93,126.5z"/>
	<path class="st0" d="M93,151H62.2c-3,0-5.4,2.4-5.4,5.4s2.4,5.4,5.4,5.4H93c3,0,5.4-2.4,5.4-5.4S95.9,151,93,151z"/>
	<path class="st0" d="M295.6,87.4h-30.7c-3,0-5.4,2.4-5.4,5.4s2.4,5.4,5.4,5.4h30.7c3,0,5.4-2.4,5.4-5.4S298.6,87.4,295.6,87.4z"/>
	<path class="st0" d="M295.6,126.5h-30.7c-3,0-5.4,2.4-5.4,5.4s2.4,5.4,5.4,5.4h30.7c3,0,5.4-2.4,5.4-5.4S298.6,126.5,295.6,126.5z"
		/>
	<path class="st0" d="M295.6,165.7h-30.7c-3,0-5.4,2.4-5.4,5.4s2.4,5.4,5.4,5.4h30.7c3,0,5.4-2.4,5.4-5.4S298.6,165.7,295.6,165.7z"
		/>
	<path class="st0" d="M295.6,204.8h-30.7c-3,0-5.4,2.4-5.4,5.4s2.4,5.4,5.4,5.4h30.7c3,0,5.4-2.4,5.4-5.4S298.6,204.8,295.6,204.8z"
		/>
	<path class="st0" d="M234.8,21.3h-10.2c-6.9,0-12.4,5.6-12.4,12.4v7.5c-26,29.1-67.6,38.2-90.5,41c-2.3-3.6-6.2-5.8-10.5-5.8H85.7
		c-3,0-5.5,2.3-5.6,5.2c0,1.5,0.5,2.9,1.5,3.9c1,1.1,2.4,1.6,3.9,1.6h25.7c0.6,0,1.1,0.3,1.4,0.8c0.2,0.3,0.3,1.5,0.2,2.6V173
		c0.1,1.4-0.1,2.5-0.6,3c-0.3,0.3-0.6,0.4-1,0.4H44.4c-0.9,0-1.6-0.7-1.6-1.6v-86c0-0.9,0.7-1.6,1.6-1.6h20.4c3,0,5.5-2.3,5.6-5.2
		c0-1.5-0.5-2.9-1.5-3.9c-1-1.1-2.4-1.6-3.9-1.6H44.4C37.6,76.4,32,82,32,88.8v6.6H13.3C5.4,95.4-1,101.8-1,109.7v44.4
		c0,7.9,6.4,14.3,14.3,14.3H32v6.6c0,6.9,5.6,12.4,12.4,12.4H47v79.3c0,6.6,5.4,12,12,12h16.3c5.8,0,10.7-4.1,11.8-9.8l15.5-81.6
		h8.7c4.2,0,8.2-2.2,10.5-5.8c22.9,2.8,64.5,11.9,90.5,41v7.5c0,6.9,5.6,12.4,12.4,12.4h10.2c6.9,0,12.4-5.6,12.4-12.4v-87.8
		c0-3-2.3-5.5-5.2-5.6c-1.5,0-2.9,0.5-3.9,1.5s-1.6,2.4-1.6,3.9v88c0,0.9-0.7,1.6-1.6,1.6h-10.2c-0.9,0-1.6-0.7-1.6-1.6V33.7
		c0-0.9,0.7-1.6,1.6-1.6H235c0.9,0,1.6,0.7,1.6,1.6v87.8c0,3,2.3,5.5,5.2,5.6c1.5,0,2.9-0.5,3.9-1.5s1.6-2.4,1.6-3.9v-88
		C247.2,26.9,241.6,21.3,234.8,21.3z M212.1,56.5v150.9c-26.7-24.1-62.6-33.1-88.5-36.3V92.8C149.6,89.6,185.4,80.6,212.1,56.5z
		 M91.5,187.4l-15,79.6c-0.1,0.6-0.6,1-1.2,1H59c-0.7,0-1.2-0.5-1.2-1.2v-79.3L91.5,187.4L91.5,187.4z M32,106.2v51.3H13.3
		c-1.9,0-3.5-1.6-3.5-3.5v-44.4c0-1.9,1.6-3.5,3.5-3.5L32,106.2L32,106.2z"/>
</g>
</svg>
