<?xml version="1.0" encoding="utf-8"?>
<!-- Generator: Adobe Illustrator 22.1.0, SVG Export Plug-In . SVG Version: 6.00 Build 0)  -->
<svg version="1.1" id="Layer_1" xmlns="http://www.w3.org/2000/svg" xmlns:xlink="http://www.w3.org/1999/xlink" x="0px" y="0px"
	 viewBox="0 0 300 300" style="enable-background:new 0 0 300 300;" xml:space="preserve">
<style type="text/css">
	.st0{fill:#FFFFFF;}
</style>
<g>
	<path class="st0" d="M243.9,69.5c-3,0-5.4,2.4-5.4,5.4v196.6H84.2c-3,0-5.4,2.4-5.4,5.4s2.4,5.4,5.4,5.4h155
		c5.6,0,10.1-4.5,10.1-10.1V74.8C249.3,71.9,246.9,69.5,243.9,69.5z"/>
	<path class="st0" d="M258,17.8h-40L203.5,3.3C200.7,0.5,197-1,193.1-1H42C36.4-1,31.9,3.5,31.9,9.1v263c0,5.6,4.5,10.1,10.1,10.1
		h8.7v8.7c0,5.6,4.5,10.1,10.1,10.1H258c5.6,0,10.1-4.5,10.1-10.1v-263C268.1,22.3,263.6,17.8,258,17.8z M197.7,50.7v-38l37.9,37.9
		L197.7,50.7L197.7,50.7z M61.5,282.2h4c3,0,5.4-2.4,5.4-5.4s-2.4-5.4-5.4-5.4H42.7V9.8h144.2v41.6c0,5.6,4.5,10.1,10.1,10.1h47
		c3,0,5.4-2.4,5.4-5.4v-0.8c0-4-1.5-7.7-4.3-10.5l-16.2-16.2h28.6v261.6h-196V282.2z"/>
	<path class="st0" d="M64.8,65.5v28.2c0,5.6,4.5,10.1,10.1,10.1H103c5.6,0,10.1-4.5,10.1-10.1V64.9l7.8-7.8c2.1-2.1,2.1-5.5,0-7.6
		c-1-1-2.4-1.6-3.8-1.6s-2.8,0.6-3.8,1.6L88.9,73.9l-7.7-7.7h5.2c3,0,5.4-2.4,5.4-5.4s-2.4-5.4-5.4-5.4H74.8c-1.3,0-2.5,0.2-3.7,0.7
		l-1.9-1.9c-2.1-2.1-5.5-2.1-7.6,0s-2.1,5.5,0,7.6l3.1,3.1C64.8,65.1,64.8,65.3,64.8,65.5z M75.5,92.9V75.7l6.3,6.3
		c1.9,1.9,4.4,3,7.1,3s5.2-1,7.1-3l6.3-6.3v17.2C102.3,92.9,75.5,92.9,75.5,92.9z"/>
	<path class="st0" d="M103,116.4H74.8c-5.6,0-10.1,4.5-10.1,10.1v28.2c0,5.6,4.5,10.1,10.1,10.1H103c5.6,0,10.1-4.5,10.1-10.1v-28.2
		C113.1,121,108.6,116.4,103,116.4z M102.3,127.2V154H75.5v-26.8H102.3z"/>
	<path class="st0" d="M113.1,215.8v-28.2c0-5.6-4.5-10.1-10.1-10.1H74.8c-5.6,0-10.1,4.5-10.1,10.1v28.2c0,5.6,4.5,10.1,10.1,10.1
		H103C108.6,225.8,113.1,221.3,113.1,215.8z M102.3,188.3v26.8H75.5v-26.8H102.3z"/>
	<path class="st0" d="M131.2,75.5h42.3c3,0,5.4-2.4,5.4-5.4s-2.4-5.4-5.4-5.4h-42.3c-3,0-5.4,2.4-5.4,5.4S128.2,75.5,131.2,75.5z"/>
	<path class="st0" d="M131.2,94.3H211c3,0,5.4-2.4,5.4-5.4s-2.4-5.4-5.4-5.4h-79.8c-3,0-5.4,2.4-5.4,5.4S128.2,94.3,131.2,94.3z"/>
	<path class="st0" d="M131.2,136.6h42.3c3,0,5.4-2.4,5.4-5.4s-2.4-5.4-5.4-5.4h-42.3c-3,0-5.4,2.4-5.4,5.4S128.2,136.6,131.2,136.6z
		"/>
	<path class="st0" d="M131.2,155.4H211c3,0,5.4-2.4,5.4-5.4s-2.4-5.4-5.4-5.4h-79.8c-3,0-5.4,2.4-5.4,5.4S128.2,155.4,131.2,155.4z"
		/>
	<path class="st0" d="M131.2,197.7h42.3c3,0,5.4-2.4,5.4-5.4s-2.4-5.4-5.4-5.4h-42.3c-3,0-5.4,2.4-5.4,5.4S128.2,197.7,131.2,197.7z
		"/>
	<path class="st0" d="M131.2,216.5H211c3,0,5.4-2.4,5.4-5.4s-2.4-5.4-5.4-5.4h-79.8c-3,0-5.4,2.4-5.4,5.4S128.2,216.5,131.2,216.5z"
		/>
</g>
</svg>
