<?xml version="1.0" encoding="utf-8"?>
<!-- Generator: Adobe Illustrator 22.1.0, SVG Export Plug-In . SVG Version: 6.00 Build 0)  -->
<svg version="1.1" id="Layer_1" xmlns="http://www.w3.org/2000/svg" xmlns:xlink="http://www.w3.org/1999/xlink" x="0px" y="0px"
	 viewBox="0 0 300 300" style="enable-background:new 0 0 300 300;" xml:space="preserve">
<style type="text/css">
	.st0{fill:#FFFFFF;}
</style>
<g>
	<path class="st0" d="M279.5,34.1h-47.7V20.5c0-4.1-2.7-6.8-6.8-6.8s-6.8,2.7-6.8,6.8v13.6H81.8V20.5c0-4.1-2.7-6.8-6.8-6.8
		s-6.8,2.7-6.8,6.8v13.6H20.5C8.9,34.1,0,43,0,54.5V109c0,4.1,2.7,6.8,6.8,6.8h286.4c4.1,0,6.8-2.7,6.8-6.8V54.5
		C300,43,291.1,34.1,279.5,34.1z M286.4,102.3H13.6V54.5c0-4.1,2.7-6.8,6.8-6.8h47.7v15.7c-4.1,2-6.8,6.8-6.8,11.6
		c0,7.5,6.1,13.6,13.6,13.6S88.6,82.5,88.6,75c0-4.8-2.7-9.5-6.8-11.6V47.7h136.4v15.7c-4.1,2-6.8,6.8-6.8,11.6
		c0,7.5,6.1,13.6,13.6,13.6s13.6-6.1,13.6-13.6c0-4.8-2.7-9.5-6.8-11.6V47.7h47.7c4.1,0,6.8,2.7,6.8,6.8L286.4,102.3L286.4,102.3z"
		/>
	<circle class="st0" cx="122.7" cy="156.8" r="13.6"/>
	<circle class="st0" cx="177.3" cy="156.8" r="13.6"/>
	<circle class="st0" cx="231.8" cy="156.8" r="13.6"/>
	
		<ellipse transform="matrix(7.088795e-02 -0.9975 0.9975 7.088795e-02 -154.2456 270.7322)" class="st0" cx="68.2" cy="218.2" rx="13.6" ry="13.6"/>
	<circle class="st0" cx="122.7" cy="218.2" r="13.6"/>
	<circle class="st0" cx="177.3" cy="218.2" r="13.6"/>
	<g>
		<path class="st0" d="M50.9,272.7H20.5c-3.8,0-6.8-3.1-6.8-6.8V136.4c0-3.7-2.9-6.8-6.7-6.9c-4.2-0.1-7,2.7-7,6.8v129.5
			c0,11.3,9.2,20.5,20.5,20.5H51c3.7,0,6.8-3,6.8-6.8l0,0C57.7,275.8,54.7,272.7,50.9,272.7z"/>
		<path class="st0" d="M293,129.5c-3.7,0.1-6.7,3.2-6.7,6.9v27.2v40.9v6.8c0,7.5-6.1,13.6-13.6,13.6h-13.6
			c-11.3,0-20.5,9.2-20.5,20.5V259c0,7.5-6.1,13.6-13.6,13.6h-34.1h-86.2c-3.8,0-7,3.1-7,7l0,0c0,3.7,3,6.7,6.7,6.7h86.5H225h8.9
			c8.9,0,17.7-3.4,23.9-10.2l32-32c6.1-6.1,10.2-15,10.2-23.9v-8.9v-6.8v-40.9v-27.3C300,132.2,297.2,129.5,293,129.5z M251.6,263.9
			c0-1.4,0.7-2.7,0.7-4.8v-13.6c0-3.8,3.1-6.8,6.8-6.8h13.6c1.4,0,2.7,0,4.8-0.7L251.6,263.9z"/>
	</g>
</g>
</svg>
