<?xml version="1.0" encoding="utf-8"?>
<!-- Generator: Adobe Illustrator 22.1.0, SVG Export Plug-In . SVG Version: 6.00 Build 0)  -->
<svg version="1.1" id="Layer_1" xmlns="http://www.w3.org/2000/svg" xmlns:xlink="http://www.w3.org/1999/xlink" x="0px" y="0px"
	 viewBox="0 0 300 300" style="enable-background:new 0 0 300 300;" xml:space="preserve">
<style type="text/css">
	.st0{fill:#FFFFFF;}
</style>
<g>
	<g>
		<g>
			<path class="st0" d="M150,109.2c-22.5,0-40.8,18.3-40.8,40.8s18.3,40.8,40.8,40.8s40.8-18.3,40.8-40.8S172.5,109.2,150,109.2z
				 M150,175.3c-14,0-25.3-11.4-25.3-25.3c0-14,11.4-25.3,25.3-25.3c14,0,25.3,11.4,25.3,25.3C175.3,164,164,175.3,150,175.3z"/>
		</g>
	</g>
	<path class="st0" d="M298.9,79.5c2.1-15.5,1-29.3-3.1-41c-1.8-5.2-8.3-6.8-12.4-3.2l0,0c-2.4,2.1-3.1,5.4-2.1,8.3
		c3.3,9.3,4.1,20.8,2.3,33.8c-2.3,17.2-9,36.4-19.5,56.2c-0.3,0.6-1.1,0.6-1.5,0.1c-12.2-18.4-26.8-36.1-43.6-52.8
		c-16.8-16.8-34.5-31.4-52.9-43.6c-0.5-0.4-0.5-1.2,0.1-1.5c22.2-11.7,43.3-18.6,61.6-20.1c3.9-0.3,6.9-3.4,7.3-7.3l0,0
		c0.4-4.6-3.4-8.5-8-8.1c-23,1.8-49.5,10.9-76.8,26.6c-0.3,0.2-0.6,0.2-0.9,0C93.9-5.1,43.5-8.9,17.3,17.3
		C8.1,26.5,2.5,38.8,0.7,53.5c-0.5,4.4,3.1,8.1,7.5,7.8h0.4c3.8-0.3,7-3.2,7.5-7c1.5-10.8,5.6-19.6,12.1-26.1
		c19.5-19.5,60.1-16.3,105.5,7.6c0.6,0.3,0.6,1.1,0.1,1.5C115.4,49.5,97.7,64.2,81,80.9c-16.8,16.8-31.4,34.5-43.6,52.9
		c-0.4,0.5-1.2,0.5-1.5-0.1c-2.4-4.5-4.5-9-6.5-13.4c-1.5-3.5-5.5-5.1-9.1-3.9l-1,0.3c-4,1.3-5.9,5.8-4.2,9.6
		c3.4,7.7,7.4,15.5,11.9,23.3c0.2,0.3,0.2,0.6,0,0.9c-32.1,55.7-35.9,106.1-9.7,132.3C28.9,294.3,45.2,300,64.6,300
		c24.5,0,53.9-9.1,85-27c0.3-0.2,0.6-0.2,0.9,0c31.1,17.9,60.5,27,85,27c19.4,0,35.7-5.7,47.3-17.3c26.2-26.2,22.4-76.6-9.7-132.3
		c-0.2-0.3-0.2-0.6,0-0.9C287.1,125.1,296,101,298.9,79.5z M28.2,271.8c-19.5-19.5-16.3-60.1,7.6-105.5c0.3-0.6,1.1-0.6,1.5-0.1
		c12.2,18.4,26.9,36.1,43.6,52.8c16.8,16.8,34.5,31.4,52.8,43.6c0.5,0.4,0.5,1.2-0.1,1.5C88.3,288.1,47.7,291.3,28.2,271.8z
		 M91.8,208.2C73.6,190,58,170.6,45.5,150.5c-0.2-0.3-0.2-0.6,0-0.9c12.5-20.1,28.1-39.5,46.3-57.7s37.6-33.8,57.7-46.3
		c0.3-0.2,0.6-0.2,0.9,0c20.1,12.5,39.5,28.1,57.7,46.3s33.8,37.6,46.3,57.7c0.2,0.3,0.2,0.6,0,0.9c-12.5,20.1-28.1,39.5-46.3,57.7
		s-37.6,33.8-57.7,46.3c-0.3,0.2-0.6,0.2-0.9,0C129.5,242,110.1,226.4,91.8,208.2z M271.8,271.8c-19.5,19.5-60.1,16.3-105.5-7.6
		c-0.6-0.3-0.6-1.1-0.1-1.5c18.4-12.2,36.1-26.9,52.8-43.6c16.8-16.8,31.4-34.5,43.6-52.8c0.4-0.5,1.2-0.5,1.5,0.1
		C288.1,211.7,291.3,252.3,271.8,271.8z"/>
</g>
</svg>
