<?xml version="1.0" encoding="utf-8"?>
<!-- Generator: Adobe Illustrator 22.1.0, SVG Export Plug-In . SVG Version: 6.00 Build 0)  -->
<svg version="1.1" id="Layer_1" xmlns="http://www.w3.org/2000/svg" xmlns:xlink="http://www.w3.org/1999/xlink" x="0px" y="0px"
	 viewBox="0 0 300 300" style="enable-background:new 0 0 300 300;" xml:space="preserve">
<style type="text/css">
	.st0{fill:#FFFFFF;}
</style>
<g>
	<path class="st0" d="M252.9,79.9c-8.8-12.8-19.9-24-32.8-32.8C208.8,19.5,181.6,0,150,0S91.2,19.5,79.9,47.1
		C67,55.9,55.9,67,47.1,79.9C19.5,91.2,0,118.4,0,150s19.5,58.8,47.1,70.1c8.8,12.8,19.9,24,32.7,32.7C91.2,280.5,118.4,300,150,300
		s58.8-19.5,70.1-47.1c12.9-8.8,24-19.9,32.8-32.8c27.6-11.3,47.1-38.5,47.1-70.1S280.5,91.2,252.9,79.9z M216.3,56.9
		c10.8,7.7,20.2,17.2,27.7,28.1l-31.1,30.2c-1.2-1.9-2.7-4-4.4-6.4c-5.5-7.5-13.7-16.7-23.6-22l28.7-27.4l0,0L216.3,56.9z M150,10.3
		c21.8,0,41.1,10.7,53,27c-16.1-7.6-34.1-11.8-53-11.8s-36.9,4.3-53,11.8C108.9,20.9,128.2,10.3,150,10.3z M150,35.7
		c20.9,0,40.6,5.7,57.4,15.5l-33.7,32.1c-7.4-2.6-15.4-4.1-23.7-4.1s-16.3,1.4-23.7,4.1L92.6,51.2C109.4,41.3,129.1,35.7,150,35.7z
		 M83.7,56.9l31.4,29.9c-9.9,5.4-18.1,14.5-23.6,22.1c-1.3,1.7-2.4,3.4-3.4,4.9c-0.3,0.5-0.7,1-0.9,1.5L56,85
		C63.5,74.1,72.9,64.6,83.7,56.9z M32,162.2L32,162.2c-3.2,0-5.7,2.9-5.2,6.1c1.8,12.1,5.4,23.9,10.5,34.7c-16.4-11.9-27-31.2-27-53
		c0,0-1.2-29,27-53.2c-5.1,10.8-8.7,22.5-10.5,34.6c-0.5,3.2,2,6,5.1,6l0,0c2.5,0,4.6-1.8,5-4.3c2.1-13.7,6.7-27.4,13.5-39.4
		l33,31.9c-0.6,1.5-1.1,3.1-1.5,4.8c-1,3.5,1.7,7,5.3,7h0.1c1.9,0,3.6-1.3,4.1-3.2c7-26.6,31.9-46.1,61-44.9
		c31,1.2,56.2,26.1,57.9,57.1c2,34.9-25.9,64-60.4,64c-27.7,0-51.1-18.8-58.3-44.1c-0.7-2.5-3-4.2-5.5-4.2l0,0c-3.2,0-5.4,3-4.6,6
		c0.5,2,1.2,3.9,1.9,5.9l-33,32c-6.8-12.1-11.5-25.4-13.6-39.7C36.5,164,34.5,162.2,32,162.2z M83.7,243.1
		C72.9,235.4,63.5,225.9,56,215l31.1-30.2c0.3,0.5,0.6,0.9,0.9,1.4c1,1.5,2.1,3.1,3.4,4.8c5.5,7.5,13.7,16.8,23.6,22.1l-26.6,25.3
		L83.7,243.1z M150,289.7c-21.8,0-41.1-10.7-53-27c16.1,7.6,34,11.8,53,11.8c18.9,0,36.9-4.3,53-11.9
		C191.1,279.1,171.8,289.7,150,289.7z M150,264.3c-20.9,0-40.6-5.7-57.4-15.5l33.7-32.1c7.4,2.6,15.4,4.1,23.7,4.1
		s16.3-1.4,23.7-4.1l33.7,32.1C190.5,258.7,170.9,264.3,150,264.3z M216.3,243.1l-2.6-2.4l0,0l-28.8-27.5
		c10-5.4,18.2-14.7,23.7-22.2c1.2-1.7,2.3-3.3,3.3-4.7c0.3-0.5,0.6-1,0.9-1.4L244,215C236.5,225.9,227.1,235.4,216.3,243.1z
		 M249.6,206.1l-33-32c2.7-7.5,4.2-15.6,4.2-24.1s-1.5-16.6-4.2-24.1l33-32c9.4,16.6,14.7,35.7,14.7,56.1
		C264.3,170.4,259,189.5,249.6,206.1z M262.7,203c7.6-16.1,11.8-34.1,11.8-53s-4.3-36.9-11.8-53c16.4,11.9,27,31.2,27,53
		S279.1,191.1,262.7,203z"/>
</g>
</svg>
