<?xml version="1.0" encoding="utf-8"?>
<!-- Generator: Adobe Illustrator 22.1.0, SVG Export Plug-In . SVG Version: 6.00 Build 0)  -->
<svg version="1.1" id="Layer_1" xmlns="http://www.w3.org/2000/svg" xmlns:xlink="http://www.w3.org/1999/xlink" x="0px" y="0px"
	 viewBox="0 0 300 300" style="enable-background:new 0 0 300 300;" xml:space="preserve">
<style type="text/css">
	.st0{fill:#FFFFFF;}
</style>
<g>
	<path class="st0" d="M249.2,229.9v27.4h-65.8v-58.9c0-4.3-3.5-7.8-7.8-7.8h-51c-4.4,0-7.9,3.6-7.9,7.9v58.7H50.9V126.9l29.6-24.6
		c0,0,69.3-56.9,69.8-57.6l98.9,82.2v38.9c0,4,3.3,7.3,7.3,7.3l0,0c4.3,0,7.7-3.5,7.7-7.7V137l23.3,18.6c1.4,1.1,3.2,1.7,4.9,1.7
		c2.2,0,4.5-1,6-2.8c2.6-3.3,2.2-8.1-1.1-10.7L162.4,34.9l-7.5-6.2c-2.8-2.3-7.1-2.3-9.9,0L105.9,61V47.4c0-4.2-3.4-7.6-7.6-7.6
		H69.6c-4.3,0-7.9,3.5-7.9,7.9v50l-59,48.2c-3.3,2.7-3.7,7.5-1,10.7c1.5,1.8,3.7,2.8,5.9,2.8c1.7,0,3.6-0.6,5-1.7l23.2-18.8v126.2
		c0,4.4,3.6,7.9,7.9,7.9h80.8c4.3,0,7.9-3.6,7.9-7.9v-59.6h35V265c0,4.4,3.6,7.9,7.9,7.9h81.4c4,0,7.3-3.3,7.3-7.3v-37.9
		c0-3.6-2.9-6.5-6.5-6.5l0,0C253,221.4,249.2,225.2,249.2,229.9z M77.6,54.8h13.3v18.4L77.6,84.3V54.8z"/>
</g>
</svg>
