<?xml version="1.0" encoding="utf-8"?>
<!-- Generator: Adobe Illustrator 22.1.0, SVG Export Plug-In . SVG Version: 6.00 Build 0)  -->
<svg version="1.1" id="Layer_1" xmlns="http://www.w3.org/2000/svg" xmlns:xlink="http://www.w3.org/1999/xlink" x="0px" y="0px"
	 viewBox="0 0 300 300" style="enable-background:new 0 0 300 300;" xml:space="preserve">
<style type="text/css">
	.st0{fill:#FFFFFF;}
</style>
<g>
	<circle class="st0" cx="63.8" cy="61.4" r="15.1"/>
	<path class="st0" d="M52.8,25.4H34.3c-5.4,0-9.7,4.3-9.7,9.7v18.5c0,3.3,2.7,6.1,6.1,6.1s6.1-2.7,6.1-6.1V37.2h16.1
		c3.3,0,6.1-2.7,6.1-6.1C58.9,27.9,56.2,25.4,52.8,25.4z"/>
	<path class="st0" d="M199.1,144.4c-0.7-28.3-14.9-40.1-23.2-44.5c-7.8-4.5-16.4-6.7-26.3-6.7h-0.9c-5.3,0-15.8,0.9-26.3,6.7
		c-10.2,5.7-22.6,18-23.9,44.1v0.2c-0.9,12.1-1.3,42.2,15.3,60.8c8.3,9.6,19.8,14.6,34.3,14.9h1.6c14.4-0.3,25.9-5.3,34.2-14.9
		C201,185.7,199.8,153.8,199.1,144.4z M111.5,144.3c1.7-34.9,26.7-38.7,37.4-38.7h0.6c13.4,0.3,36,5.7,37.5,39l0.2,2.6h0.1
		c0.5,8.3,0.9,34.1-12.3,49c-6,6.9-14.3,10.3-25.3,10.6h-0.6c-10.6,0-19.1-3.6-25.3-10.6c-15.4-17.2-12.2-49.7-12.1-50.9v-0.2
		L111.5,144.3z"/>
	<path class="st0" d="M298.6,54.2L298.6,54.2c-1.1-1.3-2.8-2.1-4.7-2.1c-3.6,0-6.7,3.1-6.7,6.7v222.8c0,2.5-2.1,4.6-4.6,4.6h-33.4
		v-5.9c-0.3-10.4-1-31.9-21.9-39.2l-0.4-0.2h-0.4c-21.6-5.6-39.9-18.2-40.1-18.4l-0.3-0.2c-0.8-0.4-1.8-0.9-3-0.9
		c-2.1,0-4.2,1-5.3,2.7c-1.2,1.7-1.5,3.5-0.9,5.1c0.4,1.1,0.9,2.7,2.6,3.8l0.1,0.1c4.9,3.3,22.4,14.4,44,20
		c11.8,4.3,13,16,13.3,27.5v5.2H62V281c0.3-11.7,1.5-23.5,12.9-27.5c22.6-5.8,41.1-18,44.6-20.4l0.6-0.5c2.4-2,3.1-5.6,1.4-8.3
		l-0.2-0.3c-2.2-2.7-5.8-3.4-8.6-1.6c-0.3,0.1-0.6,0.3-1.1,0.7c-16.7,10.6-30.7,15.5-39.5,17.8h-0.4l-0.5,0.2
		c-20.8,7.6-21.5,29.9-21.8,39.5v5.6H17.6c-2.5,0-4.6-2.1-4.6-4.6V18.4c0-2.5,2.1-4.6,4.6-4.6h225.2c3.6,0,6.4-2.7,6.4-6.4
		c0-3.6-3.1-6.7-6.7-6.7H17.6C7.9,0.8,0,8.7,0,18.4v263.2c0,9.7,7.9,17.6,17.6,17.6h264.7c9.7,0,17.6-7.9,17.6-17.6V58.7
		C300.1,57,299.7,55.4,298.6,54.2z"/>
</g>
</svg>
