<?xml version="1.0" encoding="utf-8"?>
<!-- Generator: Adobe Illustrator 22.1.0, SVG Export Plug-In . SVG Version: 6.00 Build 0)  -->
<svg version="1.1" id="Layer_1" xmlns="http://www.w3.org/2000/svg" xmlns:xlink="http://www.w3.org/1999/xlink" x="0px" y="0px"
	 viewBox="0 0 300 300" style="enable-background:new 0 0 300 300;" xml:space="preserve">
<style type="text/css">
	.st0{fill:#FFFFFF;}
</style>
<g>
	<path class="st0" d="M27.4,79.4c0,7.9,6.4,14.3,14.3,14.3S56,87.3,56,79.4c0-3.8-1.5-7.4-4.2-10.1s-6.3-4.2-10.1-4.2
		C33.8,65.1,27.4,71.5,27.4,79.4z M38.2,79.4c0-1.9,1.6-3.5,3.5-3.5s3.5,1.6,3.5,3.5s-1.6,3.5-3.5,3.5S38.2,81.3,38.2,79.4z"/>
	<path class="st0" d="M64.2,79.4c0,7.9,6.4,14.3,14.3,14.3s14.3-6.4,14.3-14.3s-6.4-14.3-14.3-14.3S64.2,71.5,64.2,79.4z M74.9,79.4
		c0-1.9,1.6-3.5,3.5-3.5s3.5,1.6,3.5,3.5s-1.6,3.5-3.5,3.5S74.9,81.3,74.9,79.4z"/>
	<path class="st0" d="M129.5,79.4c0-7.9-6.4-14.3-14.3-14.3s-14.3,6.4-14.3,14.3s6.4,14.3,14.3,14.3S129.5,87.3,129.5,79.4z
		 M118.7,79.4c0,1.9-1.6,3.5-3.5,3.5s-3.5-1.6-3.5-3.5s1.6-3.5,3.5-3.5S118.7,77.4,118.7,79.4z"/>
	<path class="st0" d="M266.2,194.2H106.3c-3,0-5.4,2.4-5.4,5.4s2.4,5.4,5.4,5.4h159.9c3,0,5.4-2.4,5.4-5.4S269.2,194.2,266.2,194.2z
		"/>
	<path class="st0" d="M290.2,175.3v44.4c0,3.6-2.9,6.5-6.5,6.5H160.3c-3.8,0-7.5,1.7-10,4.6l-33.6,38.7h-0.1v-34.3c0-5-4-9-9-9H91.1
		c-3.6,0-6.5-2.9-6.5-6.5v-78.1l0,0h13.8l0,0l4.4,5c0,0,0,0,0,0.1c-1.1,1-1.8,2.3-1.9,3.8c-0.1,3.1,2.6,5.6,5.7,5.6h4.4l0,0
		l11.8,13.6v0.1h-16.2c-2.8,0-5.4,2.1-5.6,4.9c-0.3,3.2,2.2,5.9,5.4,5.9h159.7c2.8,0,5.4-2.1,5.6-4.9c0.3-3.2-2.2-5.9-5.4-5.9H137.2
		c0,0,0,0,0-0.1c0.5-1,0.7-2.1,0.7-3.2v-10.3l0,0H266c2.8,0,5.4-2.1,5.6-4.9c0.3-3.2-2.2-5.9-5.4-5.9H137.8l0,0v-3.7l0,0h8.6
		c6.1,0,11.4-4,13.1-9.8l0,0H266c2.8,0,5.4-2.1,5.6-4.9c0.3-3.2-2.2-5.9-5.4-5.9H160.1l0,0v-13.6l0,0H266c2.8,0,5.4-2.1,5.6-4.9
		c0.3-3.2-2.2-5.9-5.4-5.9H160.1l0,0v-25l0,0h123.6c3.6,0,6.5,2.9,6.5,6.5V126c0,3,2.4,5.4,5.4,5.4l0,0c3,0,5.4-2.4,5.4-5.4V78.2
		c0-9.6-7.7-17.3-17.3-17.3H160.1l0,0V29.7c0-7.6-6.1-13.7-13.7-13.7h-41.5c-3,0-5.7,2.5-5.5,5.5c0.2,2.9,2.6,5.3,5.6,5.3h41.5
		c1.6,0,2.9,1.3,2.9,2.9v98.2c0,1.6-1.3,2.9-2.9,2.9H135c-4.4,0-7.9,3.5-7.9,7.9V158c0,0,0,0.1-0.1,0l-20.4-23.5
		c-2.1-2.4-5-3.7-8.2-3.7H12.7c-1.6,0-2.9-1.3-2.9-2.9V29.7c0-1.6,1.3-2.9,2.9-2.9h40.6c2.4,0,4.7-1.4,5.5-3.6
		c1.4-3.7-1.3-7.2-4.8-7.2H12.7C5.1,16-1,22.1-1,29.7v98.2c0,7.6,6.1,13.7,13.7,13.7h61l0,0v78.1c0,9.6,7.7,17.3,17.3,17.3h14.7l0,0
		v38c0,3.5,2,6.9,5.3,8.3c1.1,0.5,2.3,0.7,3.4,0.7c2.4,0,4.8-1,6.5-3l37.5-43.2c0.5-0.5,1.1-0.8,1.8-0.8h123.4
		c9.6,0,17.3-7.7,17.3-17.3v-43.9c0-3.1-2.5-5.6-5.6-5.6l0,0C292.5,170.1,290.2,172.4,290.2,175.3z"/>
</g>
</svg>
