<svg xmlns="http://www.w3.org/2000/svg" viewBox="0 0 327.18 376.91"><defs><style>.cls-1{fill:#fff;}</style></defs><title>minimocktest-wAsset 3</title><g id="Layer_2" data-name="Layer 2"><g id="Layer_1-2" data-name="Layer 1"><path class="cls-1" d="M225.54,29.75H197.27c.41.44.69.76,1,1.06l14.93,14.93a14.76,14.76,0,0,1,4.4,11.85,5.33,5.33,0,0,1-5.24,4.95q-23.82,0-47.64,0c-5.24,0-9.66-4.68-9.66-10.11q0-19.92,0-39.84V11H11V272.4h1.46c7,0,14,0,21,0a5.42,5.42,0,0,1,4.88,8.18,5.64,5.64,0,0,1-4.9,2.75c-1.2.05-2.4,0-3.78,0v7.88H156.4a5.06,5.06,0,0,1,3.86,1.27,6.13,6.13,0,0,1,1,6.39,5.08,5.08,0,0,1-5,3.21H29.17a9.93,9.93,0,0,1-10.12-8.27,31.86,31.86,0,0,1-.15-5.27c0-1.67,0-3.35,0-5.12-.4,0-.74-.08-1.09-.08H10.74C4.46,283.34.13,279.07,0,272.77c0-.16,0-.32,0-.48Q0,141.67,0,11.05c0-3.78,1.22-7,4.39-9.22A9.69,9.69,0,0,1,10.12,0Q85.9,0,161.68,0a13.94,13.94,0,0,1,10.09,4.3c4.53,4.52,9.07,9,13.56,13.59a2.94,2.94,0,0,0,2.31.94c12.68,0,25.36.1,38-.08a10.52,10.52,0,0,1,10.76,10.78q-.12,61.08,0,122.15v56c0,3.13-1.41,5.06-4.1,5.67a5.56,5.56,0,0,1-6.76-5.3V29.75ZM166.07,14.24V51.6h37.36C191,39.13,178.56,26.72,166.07,14.24Z"/><path class="cls-1" d="M174.66,300.63a76.26,76.26,0,1,1,74.66,76.26A76.28,76.28,0,0,1,174.66,300.63Zm10.73,0c-.19,35.43,28.7,65.05,64.6,65.53a65.57,65.57,0,1,0,.89-131.14C214.16,235.11,185.14,265.25,185.39,300.67Z"/><path class="cls-1" d="M217.61,145c0,22.72,0,45.43,0,68.15,0,3.73-2.08,5.15-4.77,5.34a6,6,0,0,1-6-4.93,11.32,11.32,0,0,1-.07-1.43q0-67.9,0-135.81c0-3.9,3.41-6.81,7.23-5.56a5.57,5.57,0,0,1,3.65,4.9c0,.48,0,1,0,1.44Z"/><path class="cls-1" d="M105.38,283.35H53c-2.84,0-5-1.46-5.71-3.87-1.06-3.53,1.49-6.89,5.36-7.08H157.1a6,6,0,0,1,4.83,1.94,5.4,5.4,0,0,1,1,6,4.85,4.85,0,0,1-4.88,3Z"/><path class="cls-1" d="M139.3,217.59H99.83c-4.06,0-6.74-3.47-5.57-7.16a5.54,5.54,0,0,1,5-3.79h79.42c3.42,0,5.9,2.17,6,5.21a5.46,5.46,0,0,1-5.71,5.74H139.3Z"/><path class="cls-1" d="M139.5,145.62h39.71a5.17,5.17,0,0,1,5,3.22,4.89,4.89,0,0,1-.91,5.77,11.11,11.11,0,0,1-3.27,1.79,2.87,2.87,0,0,1-1.18.07H99.83c-3.43,0-5.78-2.18-5.81-5.35a5.36,5.36,0,0,1,5.41-5.51c5.8,0,11.6,0,17.4,0Z"/><path class="cls-1" d="M120.66,187.88c7,0,14.07,0,21.11,0a5.43,5.43,0,0,1,1.87,10.52,7.34,7.34,0,0,1-2.46.41q-20.62,0-41.25,0a5.61,5.61,0,0,1-5.86-4.47,5.4,5.4,0,0,1,3.39-6.07,7.08,7.08,0,0,1,2.33-.39C106.75,187.86,113.71,187.88,120.66,187.88Z"/><path class="cls-1" d="M120.53,76.66c-7,0-14,0-21,0a5.46,5.46,0,0,1-5.47-4.46,5.38,5.38,0,0,1,3.42-6,6,6,0,0,1,2.09-.38q21,0,42,0a5.45,5.45,0,1,1,0,10.9Q131,76.68,120.53,76.66Z"/><path class="cls-1" d="M120.56,137.69H99.69a5.43,5.43,0,1,1-.13-10.85q21,0,42.08,0a5.27,5.27,0,0,1,5.43,4.58,5.34,5.34,0,0,1-4,6.11,6.54,6.54,0,0,1-1.66.15Z"/><path class="cls-1" d="M51.81,74.88a9.83,9.83,0,0,1,.85-1.18q8.22-8.24,16.46-16.46a4.88,4.88,0,0,1,6.55-.31,4.93,4.93,0,0,1,1.09,6.38,6.65,6.65,0,0,1-1,1.19L55.41,84.86c-2.32,2.32-5.17,2.36-7.52,0q-4.16-4.08-8.23-8.23c-2.19-2.22-2.26-5.26-.23-7.27s5.07-1.85,7.26.33Z"/><path class="cls-1" d="M51.81,206.39a9.07,9.07,0,0,1,.86-1.18q8-8.07,16.11-16.12c2.19-2.19,5.27-2.32,7.26-.32s1.9,5.07-.29,7.26q-10.17,10.18-20.36,20.36c-2.33,2.33-5.15,2.32-7.49,0l-8.23-8.23c-2.19-2.19-2.28-5.22-.22-7.24a5,5,0,0,1,7.17.28C48.28,202.83,49.93,204.5,51.81,206.39Z"/><path class="cls-1" d="M51.63,145.18c5.85-5.86,11.58-11.61,17.33-17.34a4.93,4.93,0,0,1,7.46,6.43,13.84,13.84,0,0,1-1,1L55.85,154.91c-2.89,2.89-5.49,2.89-8.36,0-2.6-2.6-5.21-5.19-7.8-7.8-2.19-2.19-2.3-5.23-.29-7.25s5.06-1.92,7.26.27C48.3,141.78,49.92,143.44,51.63,145.18Z"/><path class="cls-1" d="M256.25,295.31h22.86a5.34,5.34,0,0,1,4.23,8.79,5,5,0,0,1-4,1.84q-14.09,0-28.19,0a5.24,5.24,0,0,1-5.62-5.39q-.07-14.1,0-28.19a5.35,5.35,0,1,1,10.7.15q0,10.68,0,21.36Z"/></g></g></svg>