<?xml version="1.0" encoding="utf-8"?>
<!-- Generator: Adobe Illustrator 22.1.0, SVG Export Plug-In . SVG Version: 6.00 Build 0)  -->
<svg version="1.1" id="Layer_1" xmlns="http://www.w3.org/2000/svg" xmlns:xlink="http://www.w3.org/1999/xlink" x="0px" y="0px"
	 viewBox="0 0 300 300" style="enable-background:new 0 0 300 300;" xml:space="preserve">
<style type="text/css">
	.st0{fill:#FFFFFF;}
</style>
<g>
	<path class="st0" d="M281.6,64.9c-3.5-3.5-8.2-5.5-13.1-5.5h-32.8h-3.1c-0.8,0-1.3-0.9-0.8-1.5l1.4-2.2c3-4.5,5-9.7,5.7-15
		C241.8,18.8,224.8,0,203.4,0c-12.6,0-24.4,6.7-30.8,17.6l-1,1.6c-0.3,0.5-1,0.6-1.5,0.3l-1.5-1.2c-5.4-4.3-11.8-6.5-18.6-6.5
		s-13.3,2.3-18.6,6.5l-1.5,1.2c-0.5,0.4-1.2,0.2-1.5-0.3l-1-1.6C121,6.7,109.1,0,96.6,0C76.8,0,60.7,16.1,60.7,35.8
		c0,6.9,2,13.7,5.8,19.5l1.7,2.6c0.4,0.7,0,1.5-0.8,1.5h-3.1H31.5c-10.3,0-18.6,8.3-18.6,18.6v31c0,6.6,3.6,12.8,9.3,16.1l0.8,0.5
		c0.3,0.2,0.5,0.5,0.5,0.9v1v145.2c0,15.1,12.3,27.4,27.4,27.4H249c15.1,0,27.4-12.3,27.4-27.4v-43.9c0-3.3-2.6-5.9-5.9-5.9H270
		c-3.3,0-5.9,2.6-5.9,5.9v43.9c0,8.3-6.7,15-15,15h-65.4H182c-0.5,0-1-0.4-1-1V285V139.4V133c0-1,1.4-1.4,1.9-0.5l3.1,5.5l11.5,20.4
		c1.1,1.9,3.2,3.2,5.4,3.2c0.3,0,0.5,0,0.8,0c2.5-0.3,4.6-2.1,5.2-4.5l4.9-18.2l0.4-1.6c0.1-0.5,0.7-0.8,1.2-0.7l1.6,0.4l18.2,4.9
		c0.5,0.1,1.1,0.2,1.6,0.2c3.4,0,6.5-2.8,6.1-6.9c-0.1-0.9-0.4-1.8-0.9-2.6l-0.6-1l-1.4-2.5c-0.4-0.7,0.1-1.5,0.9-1.5h2.9h17.8h1.7
		c0.5,0,1,0.4,1,1v1.7v29.9c0,3.1,2.5,5.6,5.6,5.6h0.3c3.6,0,6.5-2.9,6.5-6.5v-31.9v-1c0-0.4,0.2-0.7,0.5-0.9l0.8-0.5
		c5.7-3.3,9.3-9.5,9.3-16.1V78C287.1,73.1,285.1,68.4,281.6,64.9z M180,56.7V36.3c0-12,8.9-22.4,20.8-23.8c15-1.7,27.7,11,26,26
		c-1.4,12-11.8,20.8-23.8,20.8h-20.4h-1.7c-0.5,0-1-0.4-1-1L180,56.7L180,56.7z M148.2,24.3c11.1-1.1,20.4,8.2,19.3,19.3
		c-0.8,8.2-7.5,14.9-15.7,15.7c-11.1,1.1-20.4-8.2-19.3-19.3C133.3,31.7,140,25.1,148.2,24.3z M133.4,71.8h2.9
		c0.8,0,1.2,0.8,0.9,1.5l-1.4,2.5l-27.1,47.3l-2,3.5c-0.4,0.8-1.6,0.6-1.8-0.2l-1-3.9l-1.6-6c-0.4-1.6-1.5-2.9-2.9-3.8
		c-0.9-0.5-2-0.8-3.1-0.8c-0.5,0-1.1,0.1-1.6,0.2l-6.3,1.7l-3.8,1c-0.9,0.2-1.6-0.7-1.1-1.4l2-3.5l21-36.7l0.5-0.8
		c0.2-0.3,0.5-0.5,0.9-0.5h1L133.4,71.8L133.4,71.8z M99.3,12.5c11.9,1.3,20.8,11.7,20.8,23.8v20.4v1.7c0,0.5-0.4,1-1,1h-1.7H97
		c-12,0-22.4-8.9-23.8-20.8C71.6,23.5,84.2,10.9,99.3,12.5z M31.5,115.2c-3.4,0-6.2-2.8-6.2-6.2V78c0-3.4,2.8-6.2,6.2-6.2h56.7h2.9
		c0.8,0,1.2,0.8,0.9,1.5l-1.4,2.5l-21.7,38l-0.5,0.8c-0.2,0.3-0.5,0.5-0.9,0.5h-1L31.5,115.2L31.5,115.2z M168.6,130.7V285v1.3v0.4
		c0,0.5-0.4,1-1,1h-0.3H166H51c-8.3,0-15-6.7-15-15V130.2v-1.7c0-0.5,0.4-1,1-1h1.7h23.6H63c0.3,0,0.6,0.2,0.8,0.4l0.5,0.7
		c0.1,0.1,0.1,0.2,0.2,0.3c0,0,0,0.1,0.1,0.1c1.1,1.5,3,2.4,4.9,2.4c0.5,0,1.1-0.1,1.6-0.2l18.2-4.9l1.6-0.4
		c0.5-0.1,1.1,0.2,1.2,0.7l0.4,1.6l4.9,18.2c0.7,2.4,2.7,4.2,5.2,4.5c0.3,0,0.5,0.1,0.8,0.1c2.2,0,4.3-1.2,5.4-3.1l5.4-9.4l3.1-5.4
		c0.5-0.9,1.9-0.5,1.9,0.5v6.2V229c0,2.9,1.9,5.6,4.8,6.2c4,0.9,7.6-2.2,7.6-6v-98.5V129c0-0.5,0.4-1,1-1h1.7h31.8h1.7
		c0.5,0,1,0.4,1,1v1.7H168.6z M168.8,115.7h-37.1h-2.9c-0.8,0-1.2-0.8-0.9-1.5l1.4-2.5L148.1,79l1.5-2.5c0.4-0.7,1.3-0.7,1.7,0
		l1.4,2.6l18.4,32.7l1.4,2.5c0.4,0.7-0.1,1.5-0.9,1.5h-2.8V115.7z M217.9,124.4l-6.3-1.7c-0.5-0.1-1.1-0.2-1.6-0.2
		c-1.1,0-2.2,0.3-3.1,0.8c-1.4,0.8-2.5,2.2-2.9,3.8l-1.5,5.8l-1.1,3.9c-0.2,0.9-1.4,1-1.8,0.2l-2-3.6l-32.4-57.7l-1.4-2.5
		c-0.4-0.7,0.1-1.5,0.9-1.5h2.8h24.3h1c0.4,0,0.7,0.2,0.9,0.5l0.5,0.8l26.9,47.3l2,3.5c0.4,0.8-0.3,1.7-1.1,1.4L217.9,124.4z
		 M274.7,109c0,3.4-2.8,6.2-6.2,6.2h-34.9h-1c-0.4,0-0.7-0.2-0.9-0.5l-0.5-0.8l-21.6-38l-1.4-2.5c-0.4-0.7,0.1-1.5,0.9-1.5h2.9h56.5
		l0,0c0.9,0,1.9,0.2,2.7,0.6c2.2,1.1,3.5,3.3,3.5,5.6V109z"/>
</g>
</svg>
