<?xml version="1.0" encoding="utf-8"?>
<!-- Generator: Adobe Illustrator 22.1.0, SVG Export Plug-In . SVG Version: 6.00 Build 0)  -->
<svg version="1.1" id="Layer_1" xmlns="http://www.w3.org/2000/svg" xmlns:xlink="http://www.w3.org/1999/xlink" x="0px" y="0px"
	 viewBox="0 0 302 300.7" style="enable-background:new 0 0 302 300.7;" xml:space="preserve">
<style type="text/css">
	.st0{fill:#FFFFFF;}
</style>
<g>
	<path class="st0" d="M150.7,192.5c-8.9,0-16.1,7.2-16.1,16.1c0,8.7,7.4,16.1,16.1,16.1s16.1-7.4,16.1-16.1S159.4,192.5,150.7,192.5
		z M155.7,208.9c0,2.4-2.1,5-5,5c-2.8,0-5-2.2-5-5c0-2.9,2.7-5,5-5S155.7,206,155.7,208.9z"/>
	<path class="st0" d="M221.3,146.3c1.3,1.3,2.9,1.6,3.7,1.6c0.7,0,2.8-0.3,3.8-1.7l12.7-12.7c1-1,1.5-2.4,1.5-3.9s-0.6-2.9-1.5-3.9
		l-14.2-14.2l9.6-5.7l0.1-0.1c2-1.5,2.7-3.6,2-5.7c0-0.2-0.1-0.5-0.1-0.8c-0.3-1.6-0.6-3.9-2.9-4.6l-53-14.9
		c-1.8-0.4-3.8,0.1-5.6,1.5l-0.1,0.1c-1.5,1.5-2,3.2-1.6,5.6l15.1,52.9c0.5,2.3,2.3,3.8,4.6,3.8c2.1,0.4,4.4-0.5,5.6-2.1l6-9.3
		L221.3,146.3z M217,105.3c-1.5,1.2-2.1,2.1-2.1,3.8c0,1.8,0.5,3.3,1.6,4.3l13.8,15.4l-5,5l-14.7-14.7c-1.2-1.2-2.2-1.6-3.7-1.6
		h-0.3c-1.6,0-3.3,1.1-3.9,2.2l-3.5,4.9L190,92.5l32.1,9.3L217,105.3z"/>
	<path class="st0" d="M42.2,170.8c1,0.4,2.5,0.9,4.2,0.2c33.6-10.1,67.2-10.2,100.1-0.4c0.9,0.6,2.3,1,3.7,1c1.3,0,2.6-0.3,3.5-1
		c33.5-9.3,67.3-9.2,100.4,0.4h1.6c1.2,0,2.1-0.4,3.3-1.2c1.4-1,2.1-2.5,2.1-4.5V34.1c0-2.3-1.5-4.4-3.6-5.3l0,0
		c-36.7-12.7-72.8-13.1-107.1-1.1c-37.1-12.4-73.2-12.1-107.1,1.1c-2.3,0.4-3.8,2.3-3.8,5v132.3c0,2,0.7,3.4,2.1,4.5L42.2,170.8z
		 M155.3,37.6c30.8-10,62.3-9.9,93.8,0.3v120.5c-14.9-4.1-30-6-47.5-6c-14.8,0-30.4,2-46.2,6.1V37.6H155.3z M49.9,158.1V37.9
		c30-10.3,61.4-10.4,93.4-0.3V158c-16-4-31.5-6-45.9-6C82.7,152,66.7,154.1,49.9,158.1z"/>
	<path class="st0" d="M123.5,53.2H65c-3.2,0-5.4,2.3-5.4,5.7s2.9,5.7,5.7,5.7h58.3c3.4,0,5.7-2.3,5.7-5.7
		C129.2,55.4,127.1,53.2,123.5,53.2z"/>
	<path class="st0" d="M123.5,77H65c-3.4,0-5.7,2.3-5.7,5.7s2.9,5.7,5.7,5.7h58.3c3.4,0,5.7-2.3,5.7-5.7
		C128.9,79.2,126.8,77,123.5,77z"/>
	<path class="st0" d="M123.5,100.1H65c-3.4,0-5.7,2.3-5.7,5.7s2.9,5.7,5.7,5.7h58.3c3.4,0,5.7-2.3,5.7-5.7
		C128.9,102.3,126.8,100.1,123.5,100.1z"/>
	<path class="st0" d="M123.5,123.5H65c-3.4,0-5.7,2.3-5.7,5.7s2.3,5.7,5.7,5.7h58.3c3.4,0,5.7-2.3,5.7-5.7
		C128.9,125.7,126.8,123.5,123.5,123.5z"/>
	<path class="st0" d="M239.7,58.9c0-3.6-2.1-5.7-5.7-5.7h-58.9c-3.2,0-5.7,2.4-5.7,5.7c0,3.4,2.3,5.7,5.7,5.7H234
		C237.4,64.6,239.7,62.3,239.7,58.9z"/>
	<path class="st0" d="M302,15.6C300.9,6.9,293.5,0,285.3,0H16.1C7.2,0,0,7.2,0,16.1v33.8c0,2.9,2.5,5.4,5.4,5.4
		c3.2,0,5.7-2.4,5.7-5.7V15.7c0-2.8,2.2-5,5-5H285c2.8,0,5,2.2,5,5v164.1H11.4v-33.2c0-2.9-2.5-5.4-5.4-5.4c-3.2,0-5.7,2.4-5.7,5.7
		v75.7c0,8.9,7.2,16.1,16.1,16.1h98.5l-11.7,24.1h-4.7c-17.7,0-32.1,14.4-32.1,32.1c0,3.2,2.4,5.7,5.7,5.7h158.4
		c2.7,0,5.7-2.3,5.7-5.7v-0.7c-0.3-17.3-14.8-31.4-32.1-31.4h-4.7l-11.7-24.1h98.5c8.9,0,16.1-7.2,16.1-16.1V15.7L302,15.6z
		 M77.6,289.6c2.7-9.5,10.8-15.7,20.5-15.7h105.5c9.3,0,17.8,6.7,20.2,15.7H77.6z M115.1,262.8l11.7-24.1h47.3l12.1,24.1H115.1z
		 M289.9,223.7c-0.4,2.4-2.3,4-4.9,4H16.1c-2.5,0-5-1.9-5-5v-32.1h278.6v33.1L289.9,223.7L289.9,223.7z"/>
</g>
</svg>
