<?xml version="1.0" encoding="utf-8"?>
<!-- Generator: Adobe Illustrator 22.1.0, SVG Export Plug-In . SVG Version: 6.00 Build 0)  -->
<svg version="1.1" id="Layer_1" xmlns="http://www.w3.org/2000/svg" xmlns:xlink="http://www.w3.org/1999/xlink" x="0px" y="0px"
	 viewBox="0 0 300 300" style="enable-background:new 0 0 300 300;" xml:space="preserve">
<style type="text/css">
	.st0{fill:#FFFFFF;}
</style>
<g>
	<path d="M53.1,83.8c-12.3,0-22.3,10-22.3,22.3s10,22.3,22.3,22.3c12.3,0,22.3-10,22.3-22.3c0-5.9-2.3-11.5-6.5-15.7
		C64.7,86.1,59.1,83.8,53.1,83.8z M53.1,119.2c-7.3,0-13.2-5.9-13.2-13.2c0-7.3,5.9-13.2,13.2-13.2s13.2,5.9,13.2,13.2
		C66.3,113.3,60.4,119.2,53.1,119.2z"/>
	<path d="M168.6,54.5c-18.3,0-33.3,14.9-33.3,33.3c0,18.3,14.9,33.3,33.3,33.3s33.3-14.9,33.3-33.3c0-8.9-3.5-17.2-9.8-23.5
		C185.8,58,177.4,54.5,168.6,54.5z M168.6,110.3c-12.4,0-22.5-10.1-22.5-22.5c0-12.4,10.1-22.5,22.5-22.5
		c12.4,0,22.5,10.1,22.5,22.5C191,100.2,181,110.3,168.6,110.3z"/>
	<path d="M141.8,189.1H51.7c-2.7,0-5,2.2-5,5V238c0,2.7,2.2,5,5,5h90.1c2.7,0,5-2.2,5-5v-43.9c0-1.3-0.5-2.6-1.5-3.5
		C144.4,189.6,143.1,189.1,141.8,189.1z M136.8,199.8v2.2v28.2v2.2v0.7h-0.7h-2.2H59.5h-2.2h-0.7v-0.7v-2.2V202v-2.2v-0.7h0.7h2.2
		h74.4h2.2h0.7V199.8z"/>
	<path d="M185.3,210.3c-4.4,0-7.9-3.6-7.9-7.9c0-4.4,3.6-7.9,7.9-7.9c4.4,0,7.9,3.6,7.9,7.9C193.2,206.7,189.7,210.3,185.3,210.3z"
		/>
	<path class="st0" d="M185.3,194.8c4.2,0,7.6,3.4,7.6,7.6c0,4.2-3.4,7.6-7.6,7.6s-7.6-3.4-7.6-7.6
		C177.7,198.2,181.1,194.8,185.3,194.8 M185.3,194.1c-4.6,0-8.3,3.7-8.3,8.3c0,4.6,3.7,8.3,8.3,8.3c4.6,0,8.3-3.7,8.3-8.3
		C193.6,197.8,189.9,194.1,185.3,194.1L185.3,194.1z"/>
	<path d="M185.3,237.6c-4.4,0-7.9-3.6-7.9-7.9c0-4.4,3.6-7.9,7.9-7.9c4.4,0,7.9,3.6,7.9,7.9C193.2,234.1,189.7,237.6,185.3,237.6z"
		/>
	<path class="st0" d="M185.3,222.1c4.2,0,7.6,3.4,7.6,7.6c0,4.2-3.4,7.6-7.6,7.6s-7.6-3.4-7.6-7.6
		C177.7,225.5,181.1,222.1,185.3,222.1 M185.3,221.4c-4.6,0-8.3,3.7-8.3,8.3c0,4.6,3.7,8.3,8.3,8.3c4.6,0,8.3-3.7,8.3-8.3
		C193.6,225.1,189.9,221.4,185.3,221.4L185.3,221.4z"/>
	<path d="M299.5,154.6c-1-1.9-2.9-3-4.8-3c-0.9,0-1.8,0.2-2.6,0.6l-53.6,28.9l-3.2,1.7l-1.1,0.6v-1.2v-3.6v-24.7
		c0-3-2.4-5.4-5.4-5.4h-13.5h-6.1h-2l1.6-1.3l4.8-3.9c16.8-13.7,26.5-33.9,26.5-55.5c0-19-7.4-37-20.9-50.5
		c-13.5-13.5-31.4-20.9-50.5-20.9c-16.3,0-31.7,5.4-44.5,15.6c-12.4,9.9-21.3,23.8-24.9,39.1l-1,4.2l-0.3,1.4l-0.9-1.1l-2.8-3.3
		C83.9,59.9,69,52.9,53.1,52.9C23.8,52.9,0,76.7,0,106c0,14.1,5.5,27.4,15.5,37.4l3.7,3.7l1.2,1.2h-1.7h-5.2H5.8
		c-3,0-5.4,2.4-5.4,5.4v37.6v2.2v0.7h0v10.8h0v0.7v2.2v16v2.2v0.7h0v10.8v0.7v2.2v14.1v23.5c0,3,2.4,5.4,5.4,5.4h33.3H131h23.4
		c3,0,5.4-2.4,5.4-5.4v-0.1c0-2.9-2.4-5.3-5.3-5.3h-37h0h-0.2H14.1h-2.2h-0.7v-0.7V270v-37.6v-32.6v-37.6v-2.2v-0.7h0.7h2.2h206.4
		h2.2h0.7v0.7v2.2v30.3v47.2V270v2.2v0.7h-0.7h-2.2h-4.3c-3,0-5.4,2.4-5.4,5.4v0c0,3,2.4,5.4,5.4,5.4h12.6c3,0,5.4-2.4,5.4-5.4
		v-24.7v-3.6v-1.2l1.1,0.6l3.2,1.7l53.6,28.9c0.8,0.4,1.7,0.6,2.6,0.6c2,0,3.9-1.1,4.8-3c0.4-0.8,0.6-1.6,0.6-2.5V157.1
		C300,156.2,299.8,155.4,299.5,154.6z M56.4,148.3c-24.8,1.9-45.6-17.8-45.6-42.2c0-23.4,19-42.4,42.4-42.4
		c24.4,0,44.1,20.8,42.2,45.6C93.8,130,77.1,146.7,56.4,148.3z M128,148.4h-6.1H92.9h-5.2h-1.7l1.2-1.2l3.7-3.7
		c5.1-5.1,9.1-11.2,11.7-17.9l1.6-4l0.5-1.3l0.8,1.2l2.3,3.7c4.3,6.9,9.6,13,15.9,18.1l4.8,3.9l1.6,1.3H128z M107.9,87.8
		c0-34.4,28.8-62.2,63.5-60.6c31,1.5,56.2,26.6,57.7,57.7c1.6,34.7-26.2,63.5-60.6,63.5C135.1,148.4,107.9,121.2,107.9,87.8z
		 M289.2,167.2v3.6v90.4v3.6v1.2l-1.1-0.6l-3.2-1.7l-49.2-26.5l-1.1-0.6l-0.4-0.2V236v-1.3v-37.3v-1.3v-0.4l0.4-0.2l1.1-0.6
		l49.2-26.5l3.2-1.7l1.1-0.6V167.2z"/>
</g>
</svg>
